<?xml version="1.0" encoding="utf-8"?>
<!-- Generator: Adobe Illustrator 16.0.0, SVG Export Plug-In . SVG Version: 6.00 Build 0)  -->
<!DOCTYPE svg PUBLIC "-//W3C//DTD SVG 1.1//EN" "http://www.w3.org/Graphics/SVG/1.1/DTD/svg11.dtd">
<svg version="1.1" id="Layer_1" xmlns="http://www.w3.org/2000/svg" xmlns:xlink="http://www.w3.org/1999/xlink" x="0px" y="0px"
	 width="144.6px" height="37.1px" viewBox="0 0 144.6 37.1" enable-background="new 0 0 144.6 37.1" xml:space="preserve">
<path d="M15.4,2.5C14.7,3.7,13.7,5.6,12.3,8.1c-1.1,2-2,3.8-2.7,5.3C9.5,12.6,9.2,11,8.7,8.4C8,4.9,7.6,2.9,7.5,2.4H0V2.5l5.1,17.7
	L4.55,23.31c1.022,0.332,2.017,0.665,2.95,0.994c1.136,0.393,2.272,0.72,3.407,1.016L11.8,20.3L22.9,2.5H15.4z"/>
<path d="M110.436,21.62L113.8,2.5h-6.7l-3,16.899l-0.012,0.29C106.266,20.33,108.377,20.979,110.436,21.62z"/>
<g>
	<path fill="#006AB3" d="M27.003,29.276c-0.601,1.3-1.3,1.9-2.101,1.9c-0.6,0-1-0.301-1.199-0.801c-0.2-0.5-0.301-1.3-0.301-2.199
		c0-0.405,0.022-0.853,0.063-1.324c-2.157-0.005-4.314-0.133-6.473-0.402c-0.135,1.077-0.189,2.079-0.189,2.926
		c0,2.4,0.5,4.4,1.4,5.801c0.699,1.1,1.6,1.699,2.6,1.8h1.1c1.5-0.2,3-1.2,4.301-3l-0.5,2.6h6.3l1.836-10.514
		c-1.965,0.286-3.931,0.506-5.897,0.641C27.693,27.7,27.393,28.56,27.003,29.276z"/>
	<path fill="#006AB3" d="M51.703,36.575h6.399l2.5-14.2c0.3-1.8,1.101-2.699,2.2-2.699c0.4,0,0.7,0.1,1,0.3s0.4,0.6,0.4,1.2
		l-0.101,0.699l-2.6,14.7h6.399l3.101-17.3c0-0.201,0.1-0.5,0.1-0.9c0-0.308,0.05-0.552,0.078-0.786
		c-5.607,1.003-11.205,2.445-16.799,3.903L51.703,36.575z"/>
	<path fill="#006AB3" d="M44.503,30.075c-0.5-0.7-0.7-1.7-0.7-3v-0.6c0-0.3,0.1-0.8,0.2-1.7l0.142-0.706
		c-2.207,0.514-4.414,0.979-6.62,1.385c-0.137,0.911-0.222,1.83-0.222,2.821c0,2.6,0.5,4.6,1.6,6.2c1.101,1.6,2.7,2.399,4.9,2.399
		c0.6,0,1.2-0.1,2-0.199c0.7-0.101,1.4-0.301,2-0.5l1-5.9c-0.6,0.4-1.4,0.7-2.3,0.8C45.703,31.075,45.003,30.776,44.503,30.075z"/>
	<path fill="#006AB3" d="M4.553,23.281l-2.35,13.294h6.699l2.008-11.284c-1.135-0.296-2.271-0.623-3.407-1.016
		C6.57,23.947,5.575,23.614,4.553,23.281z"/>
	<path fill="#006AB3" d="M86.602,36.575h6.799l2.801-15.7c0.199-1.3,0.301-2.199,0.301-2.699c0-0.166,0.012-0.362,0.027-0.571
		c-2.137-0.505-4.27-0.856-6.4-1.067L86.602,36.575z"/>
	<path fill="#006AB3" d="M74.942,16.981l-0.34,1.994h2.299l-3.199,17.601h6.5l3.1-17.601h2.5l0.459-2.695
		C82.481,16.178,78.709,16.457,74.942,16.981z"/>
	<path fill="#006AB3" d="M133.215,27.704l-1.613,8.871h6.5l1.484-8.167C137.442,28.287,135.324,28.046,133.215,27.704z"/>
	<path fill="#006AB3" d="M122.102,31.476c-0.5,0.399-1,0.6-1.701,0.6c-0.5,0-1-0.2-1.199-0.6c-0.301-0.4-0.4-1.101-0.4-2
		c0-0.7,0.1-1.601,0.301-2.7h9.318c-4.707-1.063-9.459-2.519-14.488-4.092c-0.199,0.664-0.379,1.355-0.531,2.092
		c-0.199,1.5-0.398,2.9-0.398,4c0,2.5,0.5,4.5,1.6,6c0.9,1.3,2.299,2,4.1,2.2h1.801c2-0.2,3.699-0.9,5-2.101
		c1.299-1.199,2.398-3,3.1-5.399h-5.5C122.901,30.476,122.602,31.075,122.102,31.476z"/>
	<path fill="#006AB3" d="M104.002,21.875v1.101l-0.102,0.1l-0.887-3.729c-1.727-0.5-3.492-0.992-5.313-1.471
		c-0.195-0.052-0.393-0.087-0.588-0.136l4.389,18.836h6.299l2.637-14.983c-2.059-0.642-4.17-1.29-6.348-1.931L104.002,21.875z"/>
</g>
<path d="M142.1,13.7l1.2-6.301h-6.6L135.6,13.7h-2.2L132.5,19h2.3l-1.587,8.727l0.035,0.011c2.098,0.339,4.203,0.579,6.336,0.699
	L141.3,19h2.5l0.9-5.3H142.1z"/>
<path d="M128.5,15.1c-1.101-1.3-2.7-1.899-4.7-1.899c-2.6,0.1-4.9,1.199-6.8,3.5c-1.332,1.645-2.348,3.609-3.065,6.014
	c5.021,1.57,9.768,3.023,14.468,4.086h0.798l0.699-3.1c0.2-1.101,0.301-2.2,0.301-3.101C130.2,18.2,129.6,16.4,128.5,15.1z
	 M124.4,22.9H119.7V22.5h0.1c0.3-1.5,0.8-2.601,1.3-3.3c0.601-0.7,1.2-1,1.9-1c0.5,0,1,0.199,1.2,0.6c0.3,0.4,0.399,1,0.399,1.9
	C124.6,21.2,124.5,21.9,124.4,22.9z"/>
<path d="M99,2.5h-6.4l-2.474,14.057l0.189,0.024l-0.001,0.006c2.068,0.212,4.138,0.555,6.212,1.046
	c0.029-0.424,0.073-0.93,0.073-1.533L96.7,16l0.412,1.768c0.195,0.049,0.392,0.084,0.587,0.136c1.784,0.469,3.518,0.951,5.212,1.441
	c0.034,0.01,0.067,0.02,0.101,0.029l0.01,0.04l0.002,0.001L99,2.5z"/>
<path d="M84.1,13.7L85.3,7.4h-6.5L77.7,13.7h-2.2l-0.564,3.322h0.002l0.002-0.013c3.768-0.524,7.539-0.803,11.317-0.701L86.7,13.7
	H84.1z"/>
<path d="M70.3,14.4c-0.6-0.699-1.5-1.1-2.6-1.1c-1.101,0-2.2,0.3-3.301,1c-1.1,0.7-2,1.7-2.899,3L64.6,0H58.2l-3.824,21.53l0,0
	l0.002-0.01c5.593-1.458,11.191-2.901,16.798-3.903C71.185,17.546,71.2,17.47,71.2,17.4C71.2,16.1,70.9,15.1,70.3,14.4z"/>
<path d="M48.2,13.4c-2.301-0.1-4.601,1-6.601,3.2s-3.3,4.9-4,8.3c-0.036,0.196-0.061,0.395-0.088,0.592l0.009-0.002
	c0-0.002,0-0.005,0.001-0.007c2.207-0.406,4.413-0.871,6.62-1.385L44.2,23.8c0.399-1.7,1.1-3.1,2-3.9c0.8-0.699,1.6-1,2.5-1
	c1,0,1.6,0.2,1.8,0.7l1-5.6C50.5,13.6,49.4,13.4,48.2,13.4z"/>
<path d="M29.7,13.7L29.1,16.6c-0.1-0.899-0.5-1.7-1.3-2.3c-0.7-0.6-1.6-0.9-2.6-0.9c-1.5-0.1-3,0.7-4.4,2.5
	c-1.7,2.101-2.9,5.2-3.6,9.2c-0.088,0.472-0.155,0.929-0.211,1.378c2.159,0.27,4.316,0.397,6.473,0.402
	c0.058-0.692,0.16-1.446,0.338-2.28c0.3-1.399,0.6-2.6,1.2-3.8c0.5-1.2,1.2-1.8,2-1.9c0.6,0,1,0.301,1.2,0.9
	c0.3,0.6,0.399,1.3,0.399,2.3c0,0.5,0,0.9-0.1,1.4C28.4,24,28.4,24.5,28.3,25c-0.106,0.637-0.231,1.206-0.366,1.747
	c0.001-0.006,0.003-0.011,0.005-0.017c1.966-0.135,3.932-0.354,5.897-0.641L36,13.7H29.7z"/>
</svg>
